<mxfile host="65bd71144e" modified="2020-11-28T08:04:13.472Z" agent="5.0 (Windows NT 10.0; Win64; x64) AppleWebKit/537.36 (KHTML, like Gecko) Code/1.51.1 Chrome/83.0.4103.122 Electron/9.3.3 Safari/537.36" etag="MEzmOuqbO6iFz-f6BeXr" version="13.6.5">
    <diagram id="9vSM2fw5nntJJS571F1C" name="Page-1">
        <mxGraphModel dx="1557" dy="691" grid="1" gridSize="10" guides="1" tooltips="1" connect="1" arrows="1" fold="1" page="1" pageScale="1" pageWidth="827" pageHeight="1169" math="0" shadow="0">
            <root>
                <mxCell id="0"/>
                <mxCell id="1" parent="0"/>
                <mxCell id="GA4Un4tNfJ17--tkjBRD-1" value="Admin" style="whiteSpace=wrap;html=1;align=center;" parent="1" vertex="1">
                    <mxGeometry x="750" y="710" width="100" height="40" as="geometry"/>
                </mxCell>
                <mxCell id="GA4Un4tNfJ17--tkjBRD-2" value="Password" style="ellipse;whiteSpace=wrap;html=1;align=center;" parent="1" vertex="1">
                    <mxGeometry x="660" y="805" width="100" height="40" as="geometry"/>
                </mxCell>
                <mxCell id="GA4Un4tNfJ17--tkjBRD-3" value="Email-ID" style="ellipse;whiteSpace=wrap;html=1;align=center;fontStyle=4;" parent="1" vertex="1">
                    <mxGeometry x="850" y="810" width="100" height="35" as="geometry"/>
                </mxCell>
                <mxCell id="GA4Un4tNfJ17--tkjBRD-10" value="Company" style="whiteSpace=wrap;html=1;align=center;" parent="1" vertex="1">
                    <mxGeometry x="680" y="160" width="100" height="40" as="geometry"/>
                </mxCell>
                <mxCell id="GA4Un4tNfJ17--tkjBRD-22" value="Address" style="ellipse;whiteSpace=wrap;html=1;align=center;" parent="1" vertex="1">
                    <mxGeometry x="470" y="100" width="100" height="40" as="geometry"/>
                </mxCell>
                <mxCell id="GA4Un4tNfJ17--tkjBRD-25" value="Contact" style="ellipse;whiteSpace=wrap;html=1;align=center;" parent="1" vertex="1">
                    <mxGeometry x="810" y="90" width="100" height="40" as="geometry"/>
                </mxCell>
                <mxCell id="GA4Un4tNfJ17--tkjBRD-27" value="salary&lt;br&gt;" style="ellipse;whiteSpace=wrap;html=1;align=center;" parent="1" vertex="1">
                    <mxGeometry x="190" y="140" width="100" height="40" as="geometry"/>
                </mxCell>
                <mxCell id="GA4Un4tNfJ17--tkjBRD-28" value="dateofarrival" style="ellipse;whiteSpace=wrap;html=1;align=center;strokeWidth=1;" parent="1" vertex="1">
                    <mxGeometry x="40" y="220" width="100" height="40" as="geometry"/>
                </mxCell>
                <mxCell id="GA4Un4tNfJ17--tkjBRD-31" value="Student" style="whiteSpace=wrap;html=1;align=center;" parent="1" vertex="1">
                    <mxGeometry x="490" y="940" width="100" height="40" as="geometry"/>
                </mxCell>
                <mxCell id="GA4Un4tNfJ17--tkjBRD-32" value="Registration ID" style="ellipse;whiteSpace=wrap;html=1;align=center;fontStyle=4;" parent="1" vertex="1">
                    <mxGeometry x="680" y="990" width="100" height="40" as="geometry"/>
                </mxCell>
                <mxCell id="GA4Un4tNfJ17--tkjBRD-33" value="Password" style="ellipse;whiteSpace=wrap;html=1;align=center;" parent="1" vertex="1">
                    <mxGeometry x="260" y="900" width="100" height="40" as="geometry"/>
                </mxCell>
                <mxCell id="GA4Un4tNfJ17--tkjBRD-35" value="Resume" style="ellipse;whiteSpace=wrap;html=1;align=center;" parent="1" vertex="1">
                    <mxGeometry x="314" y="1040" width="100" height="40" as="geometry"/>
                </mxCell>
                <mxCell id="GA4Un4tNfJ17--tkjBRD-36" value="Email" style="ellipse;whiteSpace=wrap;html=1;align=center;" parent="1" vertex="1">
                    <mxGeometry x="280" y="970" width="100" height="50" as="geometry"/>
                </mxCell>
                <mxCell id="GA4Un4tNfJ17--tkjBRD-61" value="&lt;font style=&quot;font-size: 17px;&quot;&gt;&lt;b style=&quot;font-size: 17px;&quot;&gt;&lt;span style=&quot;font-size: 17px;&quot;&gt;Entity Relationship diagram&lt;/span&gt;&lt;/b&gt;&lt;/font&gt;" style="text;html=1;align=center;verticalAlign=middle;resizable=0;points=[];autosize=1;strokeWidth=1;fillColor=none;fontStyle=0;fontSize=17;" parent="1" vertex="1">
                    <mxGeometry x="200" y="40" width="240" height="30" as="geometry"/>
                </mxCell>
                <mxCell id="10" value="Name" style="ellipse;whiteSpace=wrap;html=1;align=center;" parent="1" vertex="1">
                    <mxGeometry x="440" y="1030" width="100" height="40" as="geometry"/>
                </mxCell>
                <mxCell id="269" value="Notice" style="shape=table;startSize=30;container=1;collapsible=1;childLayout=tableLayout;fixedRows=1;rowLines=0;fontStyle=1;align=center;resizeLast=1;" parent="1" vertex="1">
                    <mxGeometry x="1400" y="145" width="180" height="155" as="geometry"/>
                </mxCell>
                <mxCell id="270" value="" style="shape=partialRectangle;collapsible=0;dropTarget=0;pointerEvents=0;fillColor=none;top=0;left=0;bottom=1;right=0;points=[[0,0.5],[1,0.5]];portConstraint=eastwest;" parent="269" vertex="1">
                    <mxGeometry y="30" width="180" height="30" as="geometry"/>
                </mxCell>
                <mxCell id="271" value="PK" style="shape=partialRectangle;connectable=0;fillColor=none;top=0;left=0;bottom=0;right=0;fontStyle=1;overflow=hidden;" parent="270" vertex="1">
                    <mxGeometry width="30" height="30" as="geometry"/>
                </mxCell>
                <mxCell id="272" value="UniqueId" style="shape=partialRectangle;connectable=0;fillColor=none;top=0;left=0;bottom=0;right=0;align=left;spacingLeft=6;fontStyle=5;overflow=hidden;" parent="270" vertex="1">
                    <mxGeometry x="30" width="150" height="30" as="geometry"/>
                </mxCell>
                <mxCell id="273" value="" style="shape=partialRectangle;collapsible=0;dropTarget=0;pointerEvents=0;fillColor=none;top=0;left=0;bottom=0;right=0;points=[[0,0.5],[1,0.5]];portConstraint=eastwest;" parent="269" vertex="1">
                    <mxGeometry y="60" width="180" height="30" as="geometry"/>
                </mxCell>
                <mxCell id="274" value="FK" style="shape=partialRectangle;connectable=0;fillColor=none;top=0;left=0;bottom=0;right=0;editable=1;overflow=hidden;" parent="273" vertex="1">
                    <mxGeometry width="30" height="30" as="geometry"/>
                </mxCell>
                <mxCell id="275" value="JobId" style="shape=partialRectangle;connectable=0;fillColor=none;top=0;left=0;bottom=0;right=0;align=left;spacingLeft=6;overflow=hidden;" parent="273" vertex="1">
                    <mxGeometry x="30" width="150" height="30" as="geometry"/>
                </mxCell>
                <mxCell id="276" value="" style="shape=partialRectangle;collapsible=0;dropTarget=0;pointerEvents=0;fillColor=none;top=0;left=0;bottom=0;right=0;points=[[0,0.5],[1,0.5]];portConstraint=eastwest;" parent="269" vertex="1">
                    <mxGeometry y="90" width="180" height="35" as="geometry"/>
                </mxCell>
                <mxCell id="277" value="" style="shape=partialRectangle;connectable=0;fillColor=none;top=0;left=0;bottom=0;right=0;editable=1;overflow=hidden;" parent="276" vertex="1">
                    <mxGeometry width="30" height="35" as="geometry"/>
                </mxCell>
                <mxCell id="278" value="Link" style="shape=partialRectangle;connectable=0;fillColor=none;top=0;left=0;bottom=0;right=0;align=left;spacingLeft=6;overflow=hidden;" parent="276" vertex="1">
                    <mxGeometry x="30" width="150" height="35" as="geometry"/>
                </mxCell>
                <mxCell id="342" value="" style="shape=partialRectangle;collapsible=0;dropTarget=0;pointerEvents=0;fillColor=none;top=0;left=0;bottom=0;right=0;points=[[0,0.5],[1,0.5]];portConstraint=eastwest;" parent="269" vertex="1">
                    <mxGeometry y="125" width="180" height="30" as="geometry"/>
                </mxCell>
                <mxCell id="343" value="" style="shape=partialRectangle;connectable=0;fillColor=none;top=0;left=0;bottom=0;right=0;editable=1;overflow=hidden;" parent="342" vertex="1">
                    <mxGeometry width="30" height="30" as="geometry"/>
                </mxCell>
                <mxCell id="344" value="Subject" style="shape=partialRectangle;connectable=0;fillColor=none;top=0;left=0;bottom=0;right=0;align=left;spacingLeft=6;overflow=hidden;" parent="342" vertex="1">
                    <mxGeometry x="30" width="150" height="30" as="geometry"/>
                </mxCell>
                <mxCell id="12" value="First name" style="ellipse;whiteSpace=wrap;html=1;align=center;" parent="1" vertex="1">
                    <mxGeometry x="390" y="1090" width="100" height="40" as="geometry"/>
                </mxCell>
                <mxCell id="14" value="Last name" style="ellipse;whiteSpace=wrap;html=1;align=center;" parent="1" vertex="1">
                    <mxGeometry x="510" y="1090" width="100" height="40" as="geometry"/>
                </mxCell>
                <mxCell id="49" value="Give" style="shape=rhombus;perimeter=rhombusPerimeter;whiteSpace=wrap;html=1;align=center;" parent="1" vertex="1">
                    <mxGeometry x="430" y="180" width="120" height="60" as="geometry"/>
                </mxCell>
                <mxCell id="67" value="Job" style="whiteSpace=wrap;html=1;align=center;" parent="1" vertex="1">
                    <mxGeometry x="220" y="280" width="100" height="40" as="geometry"/>
                </mxCell>
                <mxCell id="70" value="" style="endArrow=none;html=1;entryX=0.5;entryY=1;entryDx=0;entryDy=0;exitX=0.57;exitY=-0.05;exitDx=0;exitDy=0;exitPerimeter=0;" parent="1" source="67" target="GA4Un4tNfJ17--tkjBRD-27" edge="1">
                    <mxGeometry relative="1" as="geometry">
                        <mxPoint x="330" y="460" as="sourcePoint"/>
                        <mxPoint x="490" y="460" as="targetPoint"/>
                    </mxGeometry>
                </mxCell>
                <mxCell id="72" value="" style="endArrow=none;html=1;exitX=0.5;exitY=0;exitDx=0;exitDy=0;entryX=0;entryY=0.5;entryDx=0;entryDy=0;" parent="1" source="GA4Un4tNfJ17--tkjBRD-2" target="GA4Un4tNfJ17--tkjBRD-1" edge="1">
                    <mxGeometry relative="1" as="geometry">
                        <mxPoint x="330" y="460" as="sourcePoint"/>
                        <mxPoint x="490" y="460" as="targetPoint"/>
                    </mxGeometry>
                </mxCell>
                <mxCell id="73" value="" style="endArrow=none;html=1;exitX=0.5;exitY=0;exitDx=0;exitDy=0;entryX=0.613;entryY=1.042;entryDx=0;entryDy=0;entryPerimeter=0;" parent="1" source="GA4Un4tNfJ17--tkjBRD-3" target="GA4Un4tNfJ17--tkjBRD-1" edge="1">
                    <mxGeometry relative="1" as="geometry">
                        <mxPoint x="330" y="460" as="sourcePoint"/>
                        <mxPoint x="490" y="460" as="targetPoint"/>
                    </mxGeometry>
                </mxCell>
                <mxCell id="75" value="" style="endArrow=none;html=1;exitX=0.96;exitY=0.75;exitDx=0;exitDy=0;exitPerimeter=0;entryX=0;entryY=0;entryDx=0;entryDy=0;" parent="1" source="GA4Un4tNfJ17--tkjBRD-28" target="67" edge="1">
                    <mxGeometry relative="1" as="geometry">
                        <mxPoint x="330" y="340" as="sourcePoint"/>
                        <mxPoint x="490" y="340" as="targetPoint"/>
                    </mxGeometry>
                </mxCell>
                <mxCell id="78" value="" style="endArrow=none;html=1;entryX=1;entryY=0.5;entryDx=0;entryDy=0;" parent="1" source="GA4Un4tNfJ17--tkjBRD-25" target="GA4Un4tNfJ17--tkjBRD-10" edge="1">
                    <mxGeometry relative="1" as="geometry">
                        <mxPoint x="414" y="249.5" as="sourcePoint"/>
                        <mxPoint x="574" y="249.5" as="targetPoint"/>
                    </mxGeometry>
                </mxCell>
                <mxCell id="79" value="" style="endArrow=none;html=1;exitX=0.5;exitY=1;exitDx=0;exitDy=0;entryX=0.25;entryY=0;entryDx=0;entryDy=0;" parent="1" source="106" target="GA4Un4tNfJ17--tkjBRD-10" edge="1">
                    <mxGeometry relative="1" as="geometry">
                        <mxPoint x="701" y="108" as="sourcePoint"/>
                        <mxPoint x="630" y="160" as="targetPoint"/>
                    </mxGeometry>
                </mxCell>
                <mxCell id="80" value="" style="endArrow=none;html=1;entryX=0;entryY=0.25;entryDx=0;entryDy=0;exitX=1;exitY=1;exitDx=0;exitDy=0;" parent="1" source="GA4Un4tNfJ17--tkjBRD-22" target="GA4Un4tNfJ17--tkjBRD-10" edge="1">
                    <mxGeometry relative="1" as="geometry">
                        <mxPoint x="330" y="340" as="sourcePoint"/>
                        <mxPoint x="490" y="340" as="targetPoint"/>
                    </mxGeometry>
                </mxCell>
                <mxCell id="88" value="" style="endArrow=none;html=1;exitX=0;exitY=1;exitDx=0;exitDy=0;entryX=1;entryY=0.5;entryDx=0;entryDy=0;" parent="1" target="49" edge="1">
                    <mxGeometry relative="1" as="geometry">
                        <mxPoint x="685" y="200" as="sourcePoint"/>
                        <mxPoint x="570" y="230" as="targetPoint"/>
                    </mxGeometry>
                </mxCell>
                <mxCell id="89" value="1" style="resizable=0;html=1;align=right;verticalAlign=bottom;" parent="88" connectable="0" vertex="1">
                    <mxGeometry x="1" relative="1" as="geometry">
                        <mxPoint x="-0.02" y="19.71" as="offset"/>
                    </mxGeometry>
                </mxCell>
                <mxCell id="93" value="" style="endArrow=none;html=1;entryX=0;entryY=0.5;entryDx=0;entryDy=0;exitX=1;exitY=0;exitDx=0;exitDy=0;" parent="1" source="67" target="49" edge="1">
                    <mxGeometry relative="1" as="geometry">
                        <mxPoint x="330" y="420" as="sourcePoint"/>
                        <mxPoint x="490" y="420" as="targetPoint"/>
                    </mxGeometry>
                </mxCell>
                <mxCell id="94" value="N" style="resizable=0;html=1;align=right;verticalAlign=bottom;" parent="93" connectable="0" vertex="1">
                    <mxGeometry x="1" relative="1" as="geometry">
                        <mxPoint x="-0.24000000000000002" y="0.14999999999999858" as="offset"/>
                    </mxGeometry>
                </mxCell>
                <mxCell id="95" value="" style="endArrow=none;html=1;exitX=0.5;exitY=1;exitDx=0;exitDy=0;entryX=0.6;entryY=0.05;entryDx=0;entryDy=0;curved=1;entryPerimeter=0;" parent="1" source="GA4Un4tNfJ17--tkjBRD-31" target="10" edge="1">
                    <mxGeometry relative="1" as="geometry">
                        <mxPoint x="516" y="600" as="sourcePoint"/>
                        <mxPoint x="470" y="750" as="targetPoint"/>
                        <Array as="points"/>
                    </mxGeometry>
                </mxCell>
                <mxCell id="96" value="" style="endArrow=none;html=1;exitX=1;exitY=1;exitDx=0;exitDy=0;entryX=0;entryY=0.325;entryDx=0;entryDy=0;curved=1;entryPerimeter=0;" parent="1" source="GA4Un4tNfJ17--tkjBRD-31" target="GA4Un4tNfJ17--tkjBRD-32" edge="1">
                    <mxGeometry relative="1" as="geometry">
                        <mxPoint x="516" y="660" as="sourcePoint"/>
                        <mxPoint x="470" y="810" as="targetPoint"/>
                        <Array as="points"/>
                    </mxGeometry>
                </mxCell>
                <mxCell id="97" value="" style="endArrow=none;html=1;exitX=1;exitY=0.5;exitDx=0;exitDy=0;entryX=0;entryY=1;entryDx=0;entryDy=0;" parent="1" source="GA4Un4tNfJ17--tkjBRD-35" target="GA4Un4tNfJ17--tkjBRD-31" edge="1">
                    <mxGeometry relative="1" as="geometry">
                        <mxPoint x="410" y="740" as="sourcePoint"/>
                        <mxPoint x="570" y="740" as="targetPoint"/>
                    </mxGeometry>
                </mxCell>
                <mxCell id="98" value="" style="endArrow=none;html=1;entryX=0;entryY=0.5;entryDx=0;entryDy=0;exitX=1;exitY=0.5;exitDx=0;exitDy=0;" parent="1" source="GA4Un4tNfJ17--tkjBRD-36" target="GA4Un4tNfJ17--tkjBRD-31" edge="1">
                    <mxGeometry relative="1" as="geometry">
                        <mxPoint x="230" y="810" as="sourcePoint"/>
                        <mxPoint x="390" y="810" as="targetPoint"/>
                    </mxGeometry>
                </mxCell>
                <mxCell id="99" value="" style="endArrow=none;html=1;exitX=1;exitY=0.5;exitDx=0;exitDy=0;entryX=0;entryY=0;entryDx=0;entryDy=0;" parent="1" source="GA4Un4tNfJ17--tkjBRD-33" target="GA4Un4tNfJ17--tkjBRD-31" edge="1">
                    <mxGeometry relative="1" as="geometry">
                        <mxPoint x="410" y="740" as="sourcePoint"/>
                        <mxPoint x="570" y="740" as="targetPoint"/>
                    </mxGeometry>
                </mxCell>
                <mxCell id="100" value="" style="endArrow=none;html=1;entryX=1;entryY=1;entryDx=0;entryDy=0;exitX=0.403;exitY=0.083;exitDx=0;exitDy=0;exitPerimeter=0;" parent="1" source="14" target="10" edge="1">
                    <mxGeometry relative="1" as="geometry">
                        <mxPoint x="410" y="1100" as="sourcePoint"/>
                        <mxPoint x="570" y="1100" as="targetPoint"/>
                    </mxGeometry>
                </mxCell>
                <mxCell id="101" value="" style="endArrow=none;html=1;entryX=0.34;entryY=0.975;entryDx=0;entryDy=0;entryPerimeter=0;exitX=0.62;exitY=-0.05;exitDx=0;exitDy=0;exitPerimeter=0;" parent="1" source="12" target="10" edge="1">
                    <mxGeometry relative="1" as="geometry">
                        <mxPoint x="140" y="1080" as="sourcePoint"/>
                        <mxPoint x="300" y="1080" as="targetPoint"/>
                    </mxGeometry>
                </mxCell>
                <mxCell id="102" value="" style="endArrow=none;html=1;entryX=0.5;entryY=0;entryDx=0;entryDy=0;exitX=0.5;exitY=1;exitDx=0;exitDy=0;" parent="1" source="67" target="370" edge="1">
                    <mxGeometry relative="1" as="geometry">
                        <mxPoint x="120" y="530" as="sourcePoint"/>
                        <mxPoint x="310.0000000000002" y="500" as="targetPoint"/>
                    </mxGeometry>
                </mxCell>
                <mxCell id="103" value="1" style="resizable=0;html=1;align=right;verticalAlign=bottom;" parent="102" connectable="0" vertex="1">
                    <mxGeometry x="1" relative="1" as="geometry">
                        <mxPoint x="-10.03" y="-0.1" as="offset"/>
                    </mxGeometry>
                </mxCell>
                <mxCell id="104" value="c_id" style="ellipse;whiteSpace=wrap;html=1;align=center;fontStyle=4;" parent="1" vertex="1">
                    <mxGeometry x="30" y="300" width="100" height="40" as="geometry"/>
                </mxCell>
                <mxCell id="105" value="" style="endArrow=none;html=1;exitX=1;exitY=0.5;exitDx=0;exitDy=0;entryX=0;entryY=0.5;entryDx=0;entryDy=0;curved=1;" parent="1" source="104" target="67" edge="1">
                    <mxGeometry relative="1" as="geometry">
                        <mxPoint x="516" y="400" as="sourcePoint"/>
                        <mxPoint x="470" y="550" as="targetPoint"/>
                        <Array as="points"/>
                    </mxGeometry>
                </mxCell>
                <mxCell id="106" value="c_id" style="ellipse;whiteSpace=wrap;html=1;align=center;" parent="1" vertex="1">
                    <mxGeometry x="640" y="60" width="100" height="40" as="geometry"/>
                </mxCell>
                <mxCell id="123" value="Hires" style="shape=rhombus;perimeter=rhombusPerimeter;whiteSpace=wrap;html=1;align=center;" parent="1" vertex="1">
                    <mxGeometry x="110" y="490" width="120" height="60" as="geometry"/>
                </mxCell>
                <mxCell id="125" value="" style="endArrow=none;html=1;exitX=0.25;exitY=1;exitDx=0;exitDy=0;entryX=0.5;entryY=0;entryDx=0;entryDy=0;" parent="1" source="67" target="123" edge="1">
                    <mxGeometry relative="1" as="geometry">
                        <mxPoint x="280" y="520" as="sourcePoint"/>
                        <mxPoint x="440" y="520" as="targetPoint"/>
                    </mxGeometry>
                </mxCell>
                <mxCell id="126" value="1" style="resizable=0;html=1;align=right;verticalAlign=bottom;" parent="125" connectable="0" vertex="1">
                    <mxGeometry x="1" relative="1" as="geometry">
                        <mxPoint x="0.09999999999999964" y="-10.489999999999998" as="offset"/>
                    </mxGeometry>
                </mxCell>
                <mxCell id="127" value="" style="endArrow=none;html=1;entryX=0.5;entryY=1;entryDx=0;entryDy=0;exitX=0.25;exitY=0;exitDx=0;exitDy=0;" parent="1" source="310" target="123" edge="1">
                    <mxGeometry relative="1" as="geometry">
                        <mxPoint x="200" y="650" as="sourcePoint"/>
                        <mxPoint x="110" y="640" as="targetPoint"/>
                    </mxGeometry>
                </mxCell>
                <mxCell id="128" value="N" style="resizable=0;html=1;align=right;verticalAlign=bottom;" parent="127" connectable="0" vertex="1">
                    <mxGeometry x="1" relative="1" as="geometry">
                        <mxPoint x="-0.22" y="19.82" as="offset"/>
                    </mxGeometry>
                </mxCell>
                <mxCell id="129" value="Placed JobId" style="ellipse;whiteSpace=wrap;html=1;align=center;" parent="1" vertex="1">
                    <mxGeometry x="640" y="1070" width="100" height="40" as="geometry"/>
                </mxCell>
                <mxCell id="132" value="" style="endArrow=none;html=1;entryX=0.5;entryY=0;entryDx=0;entryDy=0;exitX=0.75;exitY=1;exitDx=0;exitDy=0;" parent="1" source="GA4Un4tNfJ17--tkjBRD-31" target="129" edge="1">
                    <mxGeometry relative="1" as="geometry">
                        <mxPoint x="160" y="970" as="sourcePoint"/>
                        <mxPoint x="320" y="970" as="targetPoint"/>
                        <Array as="points"/>
                    </mxGeometry>
                </mxCell>
                <mxCell id="133" value="About" style="ellipse;whiteSpace=wrap;html=1;align=center;" parent="1" vertex="1">
                    <mxGeometry x="630" y="260" width="100" height="40" as="geometry"/>
                </mxCell>
                <mxCell id="134" value="" style="endArrow=none;html=1;exitX=0.5;exitY=1;exitDx=0;exitDy=0;entryX=0.5;entryY=0;entryDx=0;entryDy=0;" parent="1" source="GA4Un4tNfJ17--tkjBRD-10" target="133" edge="1">
                    <mxGeometry relative="1" as="geometry">
                        <mxPoint x="400" y="310" as="sourcePoint"/>
                        <mxPoint x="560" y="310" as="targetPoint"/>
                    </mxGeometry>
                </mxCell>
                <mxCell id="148" value="Creates" style="shape=rhombus;perimeter=rhombusPerimeter;whiteSpace=wrap;html=1;align=center;" parent="1" vertex="1">
                    <mxGeometry x="640" y="530" width="120" height="60" as="geometry"/>
                </mxCell>
                <mxCell id="152" value="Notice" style="whiteSpace=wrap;html=1;align=center;" parent="1" vertex="1">
                    <mxGeometry x="470" y="460" width="100" height="40" as="geometry"/>
                </mxCell>
                <mxCell id="159" value="" style="endArrow=none;html=1;exitX=0.5;exitY=0;exitDx=0;exitDy=0;entryX=1;entryY=1;entryDx=0;entryDy=0;" parent="1" source="148" target="152" edge="1">
                    <mxGeometry relative="1" as="geometry">
                        <mxPoint x="420" y="480" as="sourcePoint"/>
                        <mxPoint x="580" y="480" as="targetPoint"/>
                    </mxGeometry>
                </mxCell>
                <mxCell id="160" value="N" style="resizable=0;html=1;align=right;verticalAlign=bottom;" parent="159" connectable="0" vertex="1">
                    <mxGeometry x="1" relative="1" as="geometry">
                        <mxPoint x="19.95" y="-0.03" as="offset"/>
                    </mxGeometry>
                </mxCell>
                <mxCell id="188" value="JobId" style="ellipse;whiteSpace=wrap;html=1;align=center;fontStyle=4;" parent="1" vertex="1">
                    <mxGeometry x="50" y="140" width="100" height="40" as="geometry"/>
                </mxCell>
                <mxCell id="189" value="" style="endArrow=none;html=1;entryX=0.72;entryY=0.99;entryDx=0;entryDy=0;entryPerimeter=0;exitX=0.324;exitY=-0.01;exitDx=0;exitDy=0;exitPerimeter=0;" parent="1" source="67" target="188" edge="1">
                    <mxGeometry relative="1" as="geometry">
                        <mxPoint x="270" y="280" as="sourcePoint"/>
                        <mxPoint x="430" y="280" as="targetPoint"/>
                    </mxGeometry>
                </mxCell>
                <mxCell id="205" value="Name" style="ellipse;whiteSpace=wrap;html=1;align=center;" parent="1" vertex="1">
                    <mxGeometry x="840" y="190" width="100" height="40" as="geometry"/>
                </mxCell>
                <mxCell id="206" value="" style="endArrow=none;html=1;exitX=1;exitY=1;exitDx=0;exitDy=0;entryX=0;entryY=0.5;entryDx=0;entryDy=0;" parent="1" source="GA4Un4tNfJ17--tkjBRD-10" target="205" edge="1">
                    <mxGeometry relative="1" as="geometry">
                        <mxPoint x="530" y="60" as="sourcePoint"/>
                        <mxPoint x="690" y="60" as="targetPoint"/>
                    </mxGeometry>
                </mxCell>
                <mxCell id="237" value="JD Link" style="ellipse;whiteSpace=wrap;html=1;align=center;" parent="1" vertex="1">
                    <mxGeometry x="314" y="150" width="100" height="40" as="geometry"/>
                </mxCell>
                <mxCell id="238" value="" style="endArrow=none;html=1;exitX=0.432;exitY=0.96;exitDx=0;exitDy=0;exitPerimeter=0;entryX=0.684;entryY=-0.07;entryDx=0;entryDy=0;entryPerimeter=0;" parent="1" source="237" target="67" edge="1">
                    <mxGeometry relative="1" as="geometry">
                        <mxPoint x="310" y="350" as="sourcePoint"/>
                        <mxPoint x="470" y="350" as="targetPoint"/>
                    </mxGeometry>
                </mxCell>
                <mxCell id="295" value="" style="endArrow=none;html=1;exitX=0;exitY=0.5;exitDx=0;exitDy=0;entryX=0;entryY=0.5;entryDx=0;entryDy=0;" parent="1" source="286" edge="1">
                    <mxGeometry width="50" height="50" relative="1" as="geometry">
                        <mxPoint x="910" y="740" as="sourcePoint"/>
                        <mxPoint x="1280" y="420" as="targetPoint"/>
                        <Array as="points">
                            <mxPoint x="1110" y="560"/>
                        </Array>
                    </mxGeometry>
                </mxCell>
                <mxCell id="296" value="" style="endArrow=none;html=1;entryX=0;entryY=0.5;entryDx=0;entryDy=0;exitX=0;exitY=0.5;exitDx=0;exitDy=0;" parent="1" source="162" target="289" edge="1">
                    <mxGeometry width="50" height="50" relative="1" as="geometry">
                        <mxPoint x="1170" y="740" as="sourcePoint"/>
                        <mxPoint x="1220" y="690" as="targetPoint"/>
                        <Array as="points">
                            <mxPoint x="1080" y="780"/>
                        </Array>
                    </mxGeometry>
                </mxCell>
                <mxCell id="299" value="" style="endArrow=none;html=1;entryX=0;entryY=0.5;entryDx=0;entryDy=0;exitX=0;exitY=0.5;exitDx=0;exitDy=0;" parent="1" target="191" edge="1">
                    <mxGeometry width="50" height="50" relative="1" as="geometry">
                        <mxPoint x="1280" y="450" as="sourcePoint"/>
                        <mxPoint x="1220" y="690" as="targetPoint"/>
                        <Array as="points">
                            <mxPoint x="1360" y="618"/>
                        </Array>
                    </mxGeometry>
                </mxCell>
                <mxCell id="300" value="" style="endArrow=none;html=1;entryX=0;entryY=0.5;entryDx=0;entryDy=0;exitX=0;exitY=0.5;exitDx=0;exitDy=0;" parent="1" target="273" edge="1">
                    <mxGeometry width="50" height="50" relative="1" as="geometry">
                        <mxPoint x="1280" y="420" as="sourcePoint"/>
                        <mxPoint x="1220" y="610" as="targetPoint"/>
                        <Array as="points">
                            <mxPoint x="1220" y="270"/>
                        </Array>
                    </mxGeometry>
                </mxCell>
                <mxCell id="310" value="Application" style="whiteSpace=wrap;html=1;align=center;" parent="1" vertex="1">
                    <mxGeometry x="200" y="720" width="100" height="40" as="geometry"/>
                </mxCell>
                <mxCell id="311" value="" style="endArrow=none;html=1;exitX=0.597;exitY=0.067;exitDx=0;exitDy=0;exitPerimeter=0;entryX=0.5;entryY=1;entryDx=0;entryDy=0;" parent="1" source="310" target="370" edge="1">
                    <mxGeometry relative="1" as="geometry">
                        <mxPoint x="360" y="590" as="sourcePoint"/>
                        <mxPoint x="310.0000000000002" y="560" as="targetPoint"/>
                    </mxGeometry>
                </mxCell>
                <mxCell id="312" value="N" style="resizable=0;html=1;align=right;verticalAlign=bottom;" parent="311" connectable="0" vertex="1">
                    <mxGeometry x="1" relative="1" as="geometry">
                        <mxPoint x="-20.11" y="10.37" as="offset"/>
                    </mxGeometry>
                </mxCell>
                <mxCell id="314" value="JobId" style="ellipse;whiteSpace=wrap;html=1;align=center;" parent="1" vertex="1">
                    <mxGeometry x="140" y="830" width="110" height="40" as="geometry"/>
                </mxCell>
                <mxCell id="317" value="" style="endArrow=none;html=1;exitX=0.5;exitY=0;exitDx=0;exitDy=0;entryX=0.25;entryY=1;entryDx=0;entryDy=0;" parent="1" source="314" target="310" edge="1">
                    <mxGeometry relative="1" as="geometry">
                        <mxPoint x="270" y="640" as="sourcePoint"/>
                        <mxPoint x="430" y="640" as="targetPoint"/>
                    </mxGeometry>
                </mxCell>
                <mxCell id="318" value="ApplicantId" style="ellipse;whiteSpace=wrap;html=1;align=center;fontStyle=4;" parent="1" vertex="1">
                    <mxGeometry x="30" y="790" width="100" height="40" as="geometry"/>
                </mxCell>
                <mxCell id="319" value="" style="endArrow=none;html=1;exitX=1;exitY=0.5;exitDx=0;exitDy=0;entryX=0;entryY=0.75;entryDx=0;entryDy=0;" parent="1" source="318" target="310" edge="1">
                    <mxGeometry relative="1" as="geometry">
                        <mxPoint x="270" y="640" as="sourcePoint"/>
                        <mxPoint x="430" y="640" as="targetPoint"/>
                    </mxGeometry>
                </mxCell>
                <mxCell id="320" value="Status" style="ellipse;whiteSpace=wrap;html=1;align=center;" parent="1" vertex="1">
                    <mxGeometry x="30" y="710" width="100" height="40" as="geometry"/>
                </mxCell>
                <mxCell id="321" value="" style="endArrow=none;html=1;exitX=1;exitY=0.5;exitDx=0;exitDy=0;" parent="1" source="320" edge="1">
                    <mxGeometry relative="1" as="geometry">
                        <mxPoint x="270" y="640" as="sourcePoint"/>
                        <mxPoint x="200" y="740" as="targetPoint"/>
                    </mxGeometry>
                </mxCell>
                <mxCell id="322" value="" style="endArrow=none;html=1;entryX=0;entryY=1;entryDx=0;entryDy=0;exitX=1;exitY=0;exitDx=0;exitDy=0;" parent="1" source="323" target="67" edge="1">
                    <mxGeometry relative="1" as="geometry">
                        <mxPoint x="170" y="370" as="sourcePoint"/>
                        <mxPoint x="500" y="540" as="targetPoint"/>
                    </mxGeometry>
                </mxCell>
                <mxCell id="323" value="Last date of application" style="ellipse;whiteSpace=wrap;html=1;align=center;" parent="1" vertex="1">
                    <mxGeometry x="70" y="360" width="100" height="40" as="geometry"/>
                </mxCell>
                <mxCell id="224" value="Job" style="shape=table;startSize=30;container=1;collapsible=1;childLayout=tableLayout;fixedRows=1;rowLines=0;fontStyle=1;align=center;resizeLast=1;" parent="1" vertex="1">
                    <mxGeometry x="1280" y="320" width="210" height="210" as="geometry"/>
                </mxCell>
                <mxCell id="302" value="" style="shape=partialRectangle;collapsible=0;dropTarget=0;pointerEvents=0;fillColor=none;top=0;left=0;bottom=1;right=0;points=[[0,0.5],[1,0.5]];portConstraint=eastwest;" parent="224" vertex="1">
                    <mxGeometry y="30" width="210" height="20" as="geometry"/>
                </mxCell>
                <mxCell id="303" value="PK" style="shape=partialRectangle;connectable=0;fillColor=none;top=0;left=0;bottom=0;right=0;fontStyle=1;overflow=hidden;" parent="302" vertex="1">
                    <mxGeometry width="50" height="20" as="geometry"/>
                </mxCell>
                <mxCell id="304" value="JobId" style="shape=partialRectangle;connectable=0;fillColor=none;top=0;left=0;bottom=0;right=0;align=left;spacingLeft=6;fontStyle=5;overflow=hidden;" parent="302" vertex="1">
                    <mxGeometry x="50" width="160" height="20" as="geometry"/>
                </mxCell>
                <mxCell id="231" value="" style="shape=partialRectangle;collapsible=0;dropTarget=0;pointerEvents=0;fillColor=none;top=0;left=0;bottom=0;right=0;points=[[0,0.5],[1,0.5]];portConstraint=eastwest;" parent="224" vertex="1">
                    <mxGeometry y="50" width="210" height="30" as="geometry"/>
                </mxCell>
                <mxCell id="232" value="" style="shape=partialRectangle;connectable=0;fillColor=none;top=0;left=0;bottom=0;right=0;editable=1;overflow=hidden;" parent="231" vertex="1">
                    <mxGeometry width="50" height="30" as="geometry"/>
                </mxCell>
                <mxCell id="233" value="Salary" style="shape=partialRectangle;connectable=0;fillColor=none;top=0;left=0;bottom=0;right=0;align=left;spacingLeft=6;overflow=hidden;" parent="231" vertex="1">
                    <mxGeometry x="50" width="160" height="30" as="geometry"/>
                </mxCell>
                <mxCell id="240" value="" style="shape=partialRectangle;collapsible=0;dropTarget=0;pointerEvents=0;fillColor=none;top=0;left=0;bottom=0;right=0;points=[[0,0.5],[1,0.5]];portConstraint=eastwest;" parent="224" vertex="1">
                    <mxGeometry y="80" width="210" height="30" as="geometry"/>
                </mxCell>
                <mxCell id="241" value="FK" style="shape=partialRectangle;connectable=0;fillColor=none;top=0;left=0;bottom=0;right=0;fontStyle=0;overflow=hidden;" parent="240" vertex="1">
                    <mxGeometry width="50" height="30" as="geometry"/>
                </mxCell>
                <mxCell id="242" value="JD Link" style="shape=partialRectangle;connectable=0;fillColor=none;top=0;left=0;bottom=0;right=0;align=left;spacingLeft=6;fontStyle=0;overflow=hidden;" parent="240" vertex="1">
                    <mxGeometry x="50" width="160" height="30" as="geometry"/>
                </mxCell>
                <mxCell id="234" value="" style="shape=partialRectangle;collapsible=0;dropTarget=0;pointerEvents=0;fillColor=none;top=0;left=0;bottom=0;right=0;points=[[0,0.5],[1,0.5]];portConstraint=eastwest;" parent="224" vertex="1">
                    <mxGeometry y="110" width="210" height="30" as="geometry"/>
                </mxCell>
                <mxCell id="235" value="" style="shape=partialRectangle;connectable=0;fillColor=none;top=0;left=0;bottom=0;right=0;editable=1;overflow=hidden;" parent="234" vertex="1">
                    <mxGeometry width="50" height="30" as="geometry"/>
                </mxCell>
                <mxCell id="236" value="Date Of arrival" style="shape=partialRectangle;connectable=0;fillColor=none;top=0;left=0;bottom=0;right=0;align=left;spacingLeft=6;overflow=hidden;" parent="234" vertex="1">
                    <mxGeometry x="50" width="160" height="30" as="geometry"/>
                </mxCell>
                <mxCell id="306" value="" style="shape=partialRectangle;collapsible=0;dropTarget=0;pointerEvents=0;fillColor=none;top=0;left=0;bottom=0;right=0;points=[[0,0.5],[1,0.5]];portConstraint=eastwest;" parent="224" vertex="1">
                    <mxGeometry y="140" width="210" height="30" as="geometry"/>
                </mxCell>
                <mxCell id="307" value="FK" style="shape=partialRectangle;connectable=0;fillColor=none;top=0;left=0;bottom=0;right=0;editable=1;overflow=hidden;" parent="306" vertex="1">
                    <mxGeometry width="50" height="30" as="geometry"/>
                </mxCell>
                <mxCell id="308" value="c_id" style="shape=partialRectangle;connectable=0;fillColor=none;top=0;left=0;bottom=0;right=0;align=left;spacingLeft=6;overflow=hidden;" parent="306" vertex="1">
                    <mxGeometry x="50" width="160" height="30" as="geometry"/>
                </mxCell>
                <mxCell id="325" value="" style="shape=partialRectangle;collapsible=0;dropTarget=0;pointerEvents=0;fillColor=none;top=0;left=0;bottom=0;right=0;points=[[0,0.5],[1,0.5]];portConstraint=eastwest;" parent="224" vertex="1">
                    <mxGeometry y="170" width="210" height="30" as="geometry"/>
                </mxCell>
                <mxCell id="326" value="" style="shape=partialRectangle;connectable=0;fillColor=none;top=0;left=0;bottom=0;right=0;editable=1;overflow=hidden;" parent="325" vertex="1">
                    <mxGeometry width="50" height="30" as="geometry"/>
                </mxCell>
                <mxCell id="327" value="Last date of application" style="shape=partialRectangle;connectable=0;fillColor=none;top=0;left=0;bottom=0;right=0;align=left;spacingLeft=6;overflow=hidden;" parent="325" vertex="1">
                    <mxGeometry x="50" width="160" height="30" as="geometry"/>
                </mxCell>
                <mxCell id="190" value="Company" style="shape=table;startSize=30;container=1;collapsible=1;childLayout=tableLayout;fixedRows=1;rowLines=0;fontStyle=1;align=center;resizeLast=1;" parent="1" vertex="1">
                    <mxGeometry x="1630" y="575" width="180" height="175" as="geometry"/>
                </mxCell>
                <mxCell id="191" value="" style="shape=partialRectangle;collapsible=0;dropTarget=0;pointerEvents=0;fillColor=none;top=0;left=0;bottom=1;right=0;points=[[0,0.5],[1,0.5]];portConstraint=eastwest;" parent="190" vertex="1">
                    <mxGeometry y="30" width="180" height="25" as="geometry"/>
                </mxCell>
                <mxCell id="192" value="PK" style="shape=partialRectangle;connectable=0;fillColor=none;top=0;left=0;bottom=0;right=0;fontStyle=1;overflow=hidden;" parent="191" vertex="1">
                    <mxGeometry width="50" height="25" as="geometry"/>
                </mxCell>
                <mxCell id="193" value="c_id" style="shape=partialRectangle;connectable=0;fillColor=none;top=0;left=0;bottom=0;right=0;align=left;spacingLeft=6;fontStyle=5;overflow=hidden;" parent="191" vertex="1">
                    <mxGeometry x="50" width="130" height="25" as="geometry"/>
                </mxCell>
                <mxCell id="194" value="" style="shape=partialRectangle;collapsible=0;dropTarget=0;pointerEvents=0;fillColor=none;top=0;left=0;bottom=0;right=0;points=[[0,0.5],[1,0.5]];portConstraint=eastwest;" parent="190" vertex="1">
                    <mxGeometry y="55" width="180" height="30" as="geometry"/>
                </mxCell>
                <mxCell id="195" value="" style="shape=partialRectangle;connectable=0;fillColor=none;top=0;left=0;bottom=0;right=0;editable=1;overflow=hidden;" parent="194" vertex="1">
                    <mxGeometry width="50" height="30" as="geometry"/>
                </mxCell>
                <mxCell id="196" value="Name" style="shape=partialRectangle;connectable=0;fillColor=none;top=0;left=0;bottom=0;right=0;align=left;spacingLeft=6;overflow=hidden;" parent="194" vertex="1">
                    <mxGeometry x="50" width="130" height="30" as="geometry"/>
                </mxCell>
                <mxCell id="197" value="" style="shape=partialRectangle;collapsible=0;dropTarget=0;pointerEvents=0;fillColor=none;top=0;left=0;bottom=0;right=0;points=[[0,0.5],[1,0.5]];portConstraint=eastwest;" parent="190" vertex="1">
                    <mxGeometry y="85" width="180" height="30" as="geometry"/>
                </mxCell>
                <mxCell id="198" value="" style="shape=partialRectangle;connectable=0;fillColor=none;top=0;left=0;bottom=0;right=0;editable=1;overflow=hidden;" parent="197" vertex="1">
                    <mxGeometry width="50" height="30" as="geometry"/>
                </mxCell>
                <mxCell id="199" value="Address" style="shape=partialRectangle;connectable=0;fillColor=none;top=0;left=0;bottom=0;right=0;align=left;spacingLeft=6;overflow=hidden;" parent="197" vertex="1">
                    <mxGeometry x="50" width="130" height="30" as="geometry"/>
                </mxCell>
                <mxCell id="200" value="" style="shape=partialRectangle;collapsible=0;dropTarget=0;pointerEvents=0;fillColor=none;top=0;left=0;bottom=0;right=0;points=[[0,0.5],[1,0.5]];portConstraint=eastwest;" parent="190" vertex="1">
                    <mxGeometry y="115" width="180" height="30" as="geometry"/>
                </mxCell>
                <mxCell id="201" value="" style="shape=partialRectangle;connectable=0;fillColor=none;top=0;left=0;bottom=0;right=0;editable=1;overflow=hidden;" parent="200" vertex="1">
                    <mxGeometry width="50" height="30" as="geometry"/>
                </mxCell>
                <mxCell id="202" value="Contact" style="shape=partialRectangle;connectable=0;fillColor=none;top=0;left=0;bottom=0;right=0;align=left;spacingLeft=6;overflow=hidden;" parent="200" vertex="1">
                    <mxGeometry x="50" width="130" height="30" as="geometry"/>
                </mxCell>
                <mxCell id="208" value="" style="shape=partialRectangle;collapsible=0;dropTarget=0;pointerEvents=0;fillColor=none;top=0;left=0;bottom=0;right=0;points=[[0,0.5],[1,0.5]];portConstraint=eastwest;" parent="190" vertex="1">
                    <mxGeometry y="145" width="180" height="30" as="geometry"/>
                </mxCell>
                <mxCell id="209" value="" style="shape=partialRectangle;connectable=0;fillColor=none;top=0;left=0;bottom=0;right=0;editable=1;overflow=hidden;" parent="208" vertex="1">
                    <mxGeometry width="50" height="30" as="geometry"/>
                </mxCell>
                <mxCell id="210" value="About" style="shape=partialRectangle;connectable=0;fillColor=none;top=0;left=0;bottom=0;right=0;align=left;spacingLeft=6;overflow=hidden;" parent="208" vertex="1">
                    <mxGeometry x="50" width="130" height="30" as="geometry"/>
                </mxCell>
                <mxCell id="282" value="Applicant" style="shape=table;startSize=30;container=1;collapsible=1;childLayout=tableLayout;fixedRows=1;rowLines=0;fontStyle=1;align=center;resizeLast=1;" parent="1" vertex="1">
                    <mxGeometry x="1140" y="602.5" width="180" height="150" as="geometry"/>
                </mxCell>
                <mxCell id="283" value="" style="shape=partialRectangle;collapsible=0;dropTarget=0;pointerEvents=0;fillColor=none;top=0;left=0;bottom=1;right=0;points=[[0,0.5],[1,0.5]];portConstraint=eastwest;" parent="282" vertex="1">
                    <mxGeometry y="30" width="180" height="30" as="geometry"/>
                </mxCell>
                <mxCell id="284" value="PK" style="shape=partialRectangle;connectable=0;fillColor=none;top=0;left=0;bottom=0;right=0;fontStyle=1;overflow=hidden;" parent="283" vertex="1">
                    <mxGeometry width="30" height="30" as="geometry"/>
                </mxCell>
                <mxCell id="285" value="UniqueID" style="shape=partialRectangle;connectable=0;fillColor=none;top=0;left=0;bottom=0;right=0;align=left;spacingLeft=6;fontStyle=5;overflow=hidden;" parent="283" vertex="1">
                    <mxGeometry x="30" width="150" height="30" as="geometry"/>
                </mxCell>
                <mxCell id="286" value="" style="shape=partialRectangle;collapsible=0;dropTarget=0;pointerEvents=0;fillColor=none;top=0;left=0;bottom=0;right=0;points=[[0,0.5],[1,0.5]];portConstraint=eastwest;" parent="282" vertex="1">
                    <mxGeometry y="60" width="180" height="30" as="geometry"/>
                </mxCell>
                <mxCell id="287" value="FK" style="shape=partialRectangle;connectable=0;fillColor=none;top=0;left=0;bottom=0;right=0;editable=1;overflow=hidden;" parent="286" vertex="1">
                    <mxGeometry width="30" height="30" as="geometry"/>
                </mxCell>
                <mxCell id="288" value="JobId" style="shape=partialRectangle;connectable=0;fillColor=none;top=0;left=0;bottom=0;right=0;align=left;spacingLeft=6;overflow=hidden;" parent="286" vertex="1">
                    <mxGeometry x="30" width="150" height="30" as="geometry"/>
                </mxCell>
                <mxCell id="289" value="" style="shape=partialRectangle;collapsible=0;dropTarget=0;pointerEvents=0;fillColor=none;top=0;left=0;bottom=0;right=0;points=[[0,0.5],[1,0.5]];portConstraint=eastwest;" parent="282" vertex="1">
                    <mxGeometry y="90" width="180" height="30" as="geometry"/>
                </mxCell>
                <mxCell id="290" value="FK" style="shape=partialRectangle;connectable=0;fillColor=none;top=0;left=0;bottom=0;right=0;editable=1;overflow=hidden;" parent="289" vertex="1">
                    <mxGeometry width="30" height="30" as="geometry"/>
                </mxCell>
                <mxCell id="291" value="RegistrationId" style="shape=partialRectangle;connectable=0;fillColor=none;top=0;left=0;bottom=0;right=0;align=left;spacingLeft=6;overflow=hidden;" parent="289" vertex="1">
                    <mxGeometry x="30" width="150" height="30" as="geometry"/>
                </mxCell>
                <mxCell id="292" value="" style="shape=partialRectangle;collapsible=0;dropTarget=0;pointerEvents=0;fillColor=none;top=0;left=0;bottom=0;right=0;points=[[0,0.5],[1,0.5]];portConstraint=eastwest;" parent="282" vertex="1">
                    <mxGeometry y="120" width="180" height="20" as="geometry"/>
                </mxCell>
                <mxCell id="293" value="" style="shape=partialRectangle;connectable=0;fillColor=none;top=0;left=0;bottom=0;right=0;editable=1;overflow=hidden;" parent="292" vertex="1">
                    <mxGeometry width="30" height="20" as="geometry"/>
                </mxCell>
                <mxCell id="294" value="Status" style="shape=partialRectangle;connectable=0;fillColor=none;top=0;left=0;bottom=0;right=0;align=left;spacingLeft=6;overflow=hidden;" parent="292" vertex="1">
                    <mxGeometry x="30" width="150" height="20" as="geometry"/>
                </mxCell>
                <mxCell id="161" value="Student" style="shape=table;startSize=30;container=1;collapsible=1;childLayout=tableLayout;fixedRows=1;rowLines=0;fontStyle=1;align=center;resizeLast=1;" parent="1" vertex="1">
                    <mxGeometry x="1260" y="830" width="250" height="250" as="geometry"/>
                </mxCell>
                <mxCell id="162" value="" style="shape=partialRectangle;collapsible=0;dropTarget=0;pointerEvents=0;fillColor=none;top=0;left=0;bottom=1;right=0;points=[[0,0.5],[1,0.5]];portConstraint=eastwest;" parent="161" vertex="1">
                    <mxGeometry y="30" width="250" height="30" as="geometry"/>
                </mxCell>
                <mxCell id="163" value="PK" style="shape=partialRectangle;connectable=0;fillColor=none;top=0;left=0;bottom=0;right=0;fontStyle=1;overflow=hidden;" parent="162" vertex="1">
                    <mxGeometry width="30" height="30" as="geometry"/>
                </mxCell>
                <mxCell id="164" value="Registration ID" style="shape=partialRectangle;connectable=0;fillColor=none;top=0;left=0;bottom=0;right=0;align=left;spacingLeft=6;fontStyle=5;overflow=hidden;" parent="162" vertex="1">
                    <mxGeometry x="30" width="220" height="30" as="geometry"/>
                </mxCell>
                <mxCell id="165" value="" style="shape=partialRectangle;collapsible=0;dropTarget=0;pointerEvents=0;fillColor=none;top=0;left=0;bottom=0;right=0;points=[[0,0.5],[1,0.5]];portConstraint=eastwest;" parent="161" vertex="1">
                    <mxGeometry y="60" width="250" height="30" as="geometry"/>
                </mxCell>
                <mxCell id="166" value="" style="shape=partialRectangle;connectable=0;fillColor=none;top=0;left=0;bottom=0;right=0;editable=1;overflow=hidden;" parent="165" vertex="1">
                    <mxGeometry width="30" height="30" as="geometry"/>
                </mxCell>
                <mxCell id="167" value="First Name" style="shape=partialRectangle;connectable=0;fillColor=none;top=0;left=0;bottom=0;right=0;align=left;spacingLeft=6;overflow=hidden;" parent="165" vertex="1">
                    <mxGeometry x="30" width="220" height="30" as="geometry"/>
                </mxCell>
                <mxCell id="168" value="" style="shape=partialRectangle;collapsible=0;dropTarget=0;pointerEvents=0;fillColor=none;top=0;left=0;bottom=0;right=0;points=[[0,0.5],[1,0.5]];portConstraint=eastwest;" parent="161" vertex="1">
                    <mxGeometry y="90" width="250" height="30" as="geometry"/>
                </mxCell>
                <mxCell id="169" value="" style="shape=partialRectangle;connectable=0;fillColor=none;top=0;left=0;bottom=0;right=0;editable=1;overflow=hidden;" parent="168" vertex="1">
                    <mxGeometry width="30" height="30" as="geometry"/>
                </mxCell>
                <mxCell id="170" value="Last Name" style="shape=partialRectangle;connectable=0;fillColor=none;top=0;left=0;bottom=0;right=0;align=left;spacingLeft=6;overflow=hidden;" parent="168" vertex="1">
                    <mxGeometry x="30" width="220" height="30" as="geometry"/>
                </mxCell>
                <mxCell id="171" value="" style="shape=partialRectangle;collapsible=0;dropTarget=0;pointerEvents=0;fillColor=none;top=0;left=0;bottom=0;right=0;points=[[0,0.5],[1,0.5]];portConstraint=eastwest;" parent="161" vertex="1">
                    <mxGeometry y="120" width="250" height="30" as="geometry"/>
                </mxCell>
                <mxCell id="172" value="" style="shape=partialRectangle;connectable=0;fillColor=none;top=0;left=0;bottom=0;right=0;editable=1;overflow=hidden;" parent="171" vertex="1">
                    <mxGeometry width="30" height="30" as="geometry"/>
                </mxCell>
                <mxCell id="173" value="E-mail" style="shape=partialRectangle;connectable=0;fillColor=none;top=0;left=0;bottom=0;right=0;align=left;spacingLeft=6;overflow=hidden;" parent="171" vertex="1">
                    <mxGeometry x="30" width="220" height="30" as="geometry"/>
                </mxCell>
                <mxCell id="176" value="" style="shape=partialRectangle;collapsible=0;dropTarget=0;pointerEvents=0;fillColor=none;top=0;left=0;bottom=0;right=0;points=[[0,0.5],[1,0.5]];portConstraint=eastwest;" parent="161" vertex="1">
                    <mxGeometry y="150" width="250" height="30" as="geometry"/>
                </mxCell>
                <mxCell id="177" value="" style="shape=partialRectangle;connectable=0;fillColor=none;top=0;left=0;bottom=0;right=0;editable=1;overflow=hidden;" parent="176" vertex="1">
                    <mxGeometry width="30" height="30" as="geometry"/>
                </mxCell>
                <mxCell id="178" value="Password" style="shape=partialRectangle;connectable=0;fillColor=none;top=0;left=0;bottom=0;right=0;align=left;spacingLeft=6;overflow=hidden;" parent="176" vertex="1">
                    <mxGeometry x="30" width="220" height="30" as="geometry"/>
                </mxCell>
                <mxCell id="180" value="" style="shape=partialRectangle;collapsible=0;dropTarget=0;pointerEvents=0;fillColor=none;top=0;left=0;bottom=0;right=0;points=[[0,0.5],[1,0.5]];portConstraint=eastwest;" parent="161" vertex="1">
                    <mxGeometry y="180" width="250" height="30" as="geometry"/>
                </mxCell>
                <mxCell id="181" value="" style="shape=partialRectangle;connectable=0;fillColor=none;top=0;left=0;bottom=0;right=0;editable=1;overflow=hidden;" parent="180" vertex="1">
                    <mxGeometry width="30" height="30" as="geometry"/>
                </mxCell>
                <mxCell id="182" value="Resume" style="shape=partialRectangle;connectable=0;fillColor=none;top=0;left=0;bottom=0;right=0;align=left;spacingLeft=6;overflow=hidden;" parent="180" vertex="1">
                    <mxGeometry x="30" width="220" height="30" as="geometry"/>
                </mxCell>
                <mxCell id="184" value="" style="shape=partialRectangle;collapsible=0;dropTarget=0;pointerEvents=0;fillColor=none;top=0;left=0;bottom=0;right=0;points=[[0,0.5],[1,0.5]];portConstraint=eastwest;" parent="161" vertex="1">
                    <mxGeometry y="210" width="250" height="40" as="geometry"/>
                </mxCell>
                <mxCell id="185" value="FK" style="shape=partialRectangle;connectable=0;fillColor=none;top=0;left=0;bottom=0;right=0;editable=1;overflow=hidden;" parent="184" vertex="1">
                    <mxGeometry width="30" height="40" as="geometry"/>
                </mxCell>
                <mxCell id="186" value="Placed JobId" style="shape=partialRectangle;connectable=0;fillColor=none;top=0;left=0;bottom=0;right=0;align=left;spacingLeft=6;overflow=hidden;" parent="184" vertex="1">
                    <mxGeometry x="30" width="220" height="40" as="geometry"/>
                </mxCell>
                <mxCell id="328" value="Link" style="ellipse;whiteSpace=wrap;html=1;align=center;" parent="1" vertex="1">
                    <mxGeometry x="560" y="400" width="100" height="40" as="geometry"/>
                </mxCell>
                <mxCell id="330" value="" style="endArrow=none;html=1;exitX=0;exitY=0;exitDx=0;exitDy=0;entryX=0.5;entryY=1;entryDx=0;entryDy=0;" parent="1" source="GA4Un4tNfJ17--tkjBRD-1" target="148" edge="1">
                    <mxGeometry relative="1" as="geometry">
                        <mxPoint x="860" y="570" as="sourcePoint"/>
                        <mxPoint x="1020" y="570" as="targetPoint"/>
                    </mxGeometry>
                </mxCell>
                <mxCell id="331" value="1" style="resizable=0;html=1;align=right;verticalAlign=bottom;" parent="330" connectable="0" vertex="1">
                    <mxGeometry x="1" relative="1" as="geometry">
                        <mxPoint x="0.25" y="27.65" as="offset"/>
                    </mxGeometry>
                </mxCell>
                <mxCell id="332" value="JobId" style="ellipse;whiteSpace=wrap;html=1;align=center;" parent="1" vertex="1">
                    <mxGeometry x="350" y="560" width="100" height="40" as="geometry"/>
                </mxCell>
                <mxCell id="333" value="UniqueID" style="ellipse;whiteSpace=wrap;html=1;align=center;fontStyle=4;" parent="1" vertex="1">
                    <mxGeometry x="470" y="575" width="100" height="40" as="geometry"/>
                </mxCell>
                <mxCell id="336" value="" style="endArrow=none;html=1;entryX=0.5;entryY=1;entryDx=0;entryDy=0;exitX=0.5;exitY=0;exitDx=0;exitDy=0;" parent="1" source="333" target="152" edge="1">
                    <mxGeometry relative="1" as="geometry">
                        <mxPoint x="860" y="570" as="sourcePoint"/>
                        <mxPoint x="1020" y="570" as="targetPoint"/>
                    </mxGeometry>
                </mxCell>
                <mxCell id="337" value="" style="endArrow=none;html=1;exitX=0.5;exitY=0;exitDx=0;exitDy=0;entryX=0.25;entryY=1;entryDx=0;entryDy=0;" parent="1" source="332" target="152" edge="1">
                    <mxGeometry relative="1" as="geometry">
                        <mxPoint x="860" y="570" as="sourcePoint"/>
                        <mxPoint x="1020" y="570" as="targetPoint"/>
                    </mxGeometry>
                </mxCell>
                <mxCell id="339" value="" style="endArrow=none;html=1;entryX=1;entryY=0;entryDx=0;entryDy=0;" parent="1" source="328" target="152" edge="1">
                    <mxGeometry relative="1" as="geometry">
                        <mxPoint x="860" y="570" as="sourcePoint"/>
                        <mxPoint x="1020" y="570" as="targetPoint"/>
                    </mxGeometry>
                </mxCell>
                <mxCell id="345" value="Subject" style="ellipse;whiteSpace=wrap;html=1;align=center;" parent="1" vertex="1">
                    <mxGeometry x="460" y="380" width="100" height="40" as="geometry"/>
                </mxCell>
                <mxCell id="347" value="" style="endArrow=none;html=1;exitX=0.5;exitY=1;exitDx=0;exitDy=0;entryX=0.5;entryY=0;entryDx=0;entryDy=0;" parent="1" source="345" target="152" edge="1">
                    <mxGeometry relative="1" as="geometry">
                        <mxPoint x="820" y="570" as="sourcePoint"/>
                        <mxPoint x="980" y="570" as="targetPoint"/>
                    </mxGeometry>
                </mxCell>
                <mxCell id="370" value="Applies" style="shape=rhombus;perimeter=rhombusPerimeter;whiteSpace=wrap;html=1;align=center;rounded=0;sketch=0;" parent="1" vertex="1">
                    <mxGeometry x="250" y="490" width="120" height="60" as="geometry"/>
                </mxCell>
                <mxCell id="375" value="Creates" style="shape=rhombus;perimeter=rhombusPerimeter;whiteSpace=wrap;html=1;align=center;" vertex="1" parent="1">
                    <mxGeometry x="810" y="440" width="120" height="60" as="geometry"/>
                </mxCell>
                <mxCell id="376" value="" style="endArrow=none;html=1;rounded=0;exitX=0.75;exitY=0;exitDx=0;exitDy=0;entryX=0.5;entryY=1;entryDx=0;entryDy=0;" edge="1" parent="1" source="GA4Un4tNfJ17--tkjBRD-1" target="375">
                    <mxGeometry relative="1" as="geometry">
                        <mxPoint x="530" y="720" as="sourcePoint"/>
                        <mxPoint x="690" y="720" as="targetPoint"/>
                    </mxGeometry>
                </mxCell>
                <mxCell id="377" value="1" style="resizable=0;html=1;align=right;verticalAlign=bottom;" connectable="0" vertex="1" parent="376">
                    <mxGeometry x="1" relative="1" as="geometry"/>
                </mxCell>
                <mxCell id="378" value="" style="endArrow=none;html=1;rounded=0;entryX=0.5;entryY=0;entryDx=0;entryDy=0;exitX=0.75;exitY=1;exitDx=0;exitDy=0;" edge="1" parent="1" source="GA4Un4tNfJ17--tkjBRD-10" target="375">
                    <mxGeometry relative="1" as="geometry">
                        <mxPoint x="530" y="720" as="sourcePoint"/>
                        <mxPoint x="690" y="720" as="targetPoint"/>
                    </mxGeometry>
                </mxCell>
                <mxCell id="379" value="N" style="resizable=0;html=1;align=right;verticalAlign=bottom;" connectable="0" vertex="1" parent="378">
                    <mxGeometry x="1" relative="1" as="geometry"/>
                </mxCell>
                <mxCell id="380" value="creates" style="shape=rhombus;perimeter=rhombusPerimeter;whiteSpace=wrap;html=1;align=center;" vertex="1" parent="1">
                    <mxGeometry x="370" y="770" width="120" height="60" as="geometry"/>
                </mxCell>
                <mxCell id="382" value="" style="endArrow=none;html=1;rounded=0;exitX=0.75;exitY=1;exitDx=0;exitDy=0;entryX=0;entryY=0.5;entryDx=0;entryDy=0;" edge="1" parent="1" source="310" target="380">
                    <mxGeometry relative="1" as="geometry">
                        <mxPoint x="650" y="840" as="sourcePoint"/>
                        <mxPoint x="810" y="840" as="targetPoint"/>
                    </mxGeometry>
                </mxCell>
                <mxCell id="383" value="N" style="resizable=0;html=1;align=right;verticalAlign=bottom;" connectable="0" vertex="1" parent="382">
                    <mxGeometry x="1" relative="1" as="geometry"/>
                </mxCell>
                <mxCell id="384" value="" style="endArrow=none;html=1;rounded=0;exitX=0.25;exitY=0;exitDx=0;exitDy=0;entryX=1;entryY=0.5;entryDx=0;entryDy=0;" edge="1" parent="1" source="GA4Un4tNfJ17--tkjBRD-31" target="380">
                    <mxGeometry relative="1" as="geometry">
                        <mxPoint x="650" y="840" as="sourcePoint"/>
                        <mxPoint x="810" y="840" as="targetPoint"/>
                    </mxGeometry>
                </mxCell>
                <mxCell id="385" value="1" style="resizable=0;html=1;align=right;verticalAlign=bottom;" connectable="0" vertex="1" parent="384">
                    <mxGeometry x="1" relative="1" as="geometry"/>
                </mxCell>
            </root>
        </mxGraphModel>
    </diagram>
</mxfile>